<svg width="670" height="214" viewBox="0 0 670 214" fill="none" xmlns="http://www.w3.org/2000/svg">
<path d="M154.297 116.555C154.297 122.349 153.581 127.525 152.148 132.082C150.716 136.639 148.763 140.676 146.289 144.191C143.88 147.642 141.081 150.604 137.891 153.078C134.701 155.552 131.348 157.57 127.832 159.133C124.382 160.695 120.866 161.835 117.285 162.551C113.77 163.267 110.449 163.625 107.324 163.625H49.9023V138.234H107.324C110.579 137.974 113.509 137.323 116.113 136.281C118.783 135.174 121.061 133.71 122.949 131.887C124.837 130.064 126.302 127.883 127.344 125.344C128.385 122.74 128.906 119.81 128.906 116.555V105.031C128.581 101.841 127.897 98.9115 126.855 96.2422C125.814 93.5729 124.382 91.2943 122.559 89.4062C120.801 87.5182 118.652 86.0534 116.113 85.0117C113.574 83.9049 110.645 83.3516 107.324 83.3516H50.0977C46.7122 83.3516 44.1406 84.2305 42.3828 85.9883C40.625 87.7461 39.7461 90.2852 39.7461 93.6055V198H14.3555V93.6055C14.3555 87.0951 15.5273 81.5612 17.8711 77.0039C20.2799 72.4466 23.2422 68.7682 26.7578 65.9688C30.3385 63.1693 34.2122 61.151 38.3789 59.9141C42.5456 58.612 46.3867 57.9609 49.9023 57.9609H107.324C113.053 57.9609 118.197 58.7096 122.754 60.207C127.311 61.6393 131.315 63.5924 134.766 66.0664C138.281 68.4753 141.243 71.2747 143.652 74.4648C146.126 77.6549 148.145 81.0078 149.707 84.5234C151.335 87.974 152.507 91.4896 153.223 95.0703C153.939 98.5859 154.297 101.906 154.297 105.031V116.555ZM291.211 140.773H211.035V115.188H291.211V140.773ZM302.637 198H211.035C207.52 198 203.678 197.382 199.512 196.145C195.345 194.908 191.471 192.889 187.891 190.09C184.375 187.225 181.413 183.547 179.004 179.055C176.66 174.497 175.488 168.931 175.488 162.355V70.7539C175.488 68.9961 175.814 67.3359 176.465 65.7734C177.116 64.2109 177.995 62.8438 179.102 61.6719C180.273 60.5 181.641 59.5885 183.203 58.9375C184.766 58.2865 186.458 57.9609 188.281 57.9609H302.637V83.3516H200.879V162.355C200.879 165.676 201.758 168.215 203.516 169.973C205.273 171.73 207.845 172.609 211.23 172.609H302.637V198ZM447.07 65.5781C448.047 67.8568 448.34 70.2656 447.949 72.8047C447.559 75.2786 446.517 77.3945 444.824 79.1523L361.035 172.609H446.875V198H332.422C329.948 198 327.637 197.316 325.488 195.949C323.405 194.517 321.842 192.661 320.801 190.383C319.694 188.104 319.336 185.728 319.727 183.254C320.182 180.78 321.224 178.632 322.852 176.809L406.836 83.3516H320.801V57.9609H435.449C437.923 57.9609 440.202 58.6771 442.285 60.1094C444.434 61.4766 446.029 63.2995 447.07 65.5781ZM607.422 198H582.031V163.625H492.773V198H467.383V127.98C467.383 117.759 469.141 108.352 472.656 99.7578C476.172 91.1641 481.055 83.7747 487.305 77.5898C493.555 71.4049 500.944 66.5872 509.473 63.1367C518.001 59.6862 527.311 57.9609 537.402 57.9609H594.629C596.387 57.9609 598.047 58.2865 599.609 58.9375C601.172 59.5885 602.539 60.5 603.711 61.6719C604.883 62.8438 605.794 64.2109 606.445 65.7734C607.096 67.3359 607.422 68.9961 607.422 70.7539V198ZM492.773 138.234H582.031V83.3516H537.402C536.621 83.3516 534.961 83.4818 532.422 83.7422C529.948 83.9375 527.051 84.4909 523.73 85.4023C520.475 86.3138 517.025 87.7135 513.379 89.6016C509.733 91.4896 506.38 94.0938 503.32 97.4141C500.26 100.734 497.721 104.901 495.703 109.914C493.75 114.862 492.773 120.884 492.773 127.98V138.234Z" fill="#E7E7E7"/>
<circle cx="650" cy="178" r="20" fill="#FDCA00"/>
</svg>
